<mxfile host="app.diagrams.net" modified="2023-06-01T19:57:48.680Z" agent="Mozilla/5.0 (Macintosh; Intel Mac OS X 10_15_7) AppleWebKit/537.36 (KHTML, like Gecko) Chrome/113.0.0.0 Safari/537.36" etag="kTdSMLPU0khVdPHoyXEq" version="21.3.2" type="device">
  <diagram name="Page-1" id="tOKatF07P9CiJOWHDksF">
    <mxGraphModel dx="1232" dy="858" grid="1" gridSize="10" guides="1" tooltips="1" connect="1" arrows="1" fold="1" page="1" pageScale="1" pageWidth="850" pageHeight="1100" math="0" shadow="0">
      <root>
        <mxCell id="0" />
        <mxCell id="1" parent="0" />
        <mxCell id="y7TbIQ7WOGR4q9mUZn1G-3" value="" style="edgeStyle=orthogonalEdgeStyle;rounded=0;orthogonalLoop=1;jettySize=auto;html=1;" parent="1" source="y7TbIQ7WOGR4q9mUZn1G-1" target="y7TbIQ7WOGR4q9mUZn1G-2" edge="1">
          <mxGeometry relative="1" as="geometry" />
        </mxCell>
        <mxCell id="y7TbIQ7WOGR4q9mUZn1G-19" value="" style="edgeStyle=orthogonalEdgeStyle;rounded=0;orthogonalLoop=1;jettySize=auto;html=1;strokeColor=none;endArrow=none;endFill=0;" parent="1" target="y7TbIQ7WOGR4q9mUZn1G-18" edge="1">
          <mxGeometry relative="1" as="geometry">
            <mxPoint x="320" y="70" as="sourcePoint" />
          </mxGeometry>
        </mxCell>
        <mxCell id="y7TbIQ7WOGR4q9mUZn1G-20" value="" style="edgeStyle=orthogonalEdgeStyle;rounded=0;orthogonalLoop=1;jettySize=auto;html=1;endArrow=none;endFill=0;" parent="1" source="y7TbIQ7WOGR4q9mUZn1G-1" target="y7TbIQ7WOGR4q9mUZn1G-18" edge="1">
          <mxGeometry relative="1" as="geometry" />
        </mxCell>
        <mxCell id="y7TbIQ7WOGR4q9mUZn1G-1" value="Establishment of the Executive Group" style="rounded=0;whiteSpace=wrap;html=1;fontStyle=1;fontSize=13;" parent="1" vertex="1">
          <mxGeometry x="160" y="40" width="160" height="60" as="geometry" />
        </mxCell>
        <mxCell id="y7TbIQ7WOGR4q9mUZn1G-5" value="" style="edgeStyle=orthogonalEdgeStyle;rounded=0;orthogonalLoop=1;jettySize=auto;html=1;" parent="1" source="y7TbIQ7WOGR4q9mUZn1G-2" target="y7TbIQ7WOGR4q9mUZn1G-4" edge="1">
          <mxGeometry relative="1" as="geometry" />
        </mxCell>
        <mxCell id="y7TbIQ7WOGR4q9mUZn1G-24" value="" style="edgeStyle=orthogonalEdgeStyle;rounded=0;orthogonalLoop=1;jettySize=auto;html=1;endArrow=none;endFill=0;" parent="1" source="y7TbIQ7WOGR4q9mUZn1G-2" target="y7TbIQ7WOGR4q9mUZn1G-23" edge="1">
          <mxGeometry relative="1" as="geometry" />
        </mxCell>
        <mxCell id="y7TbIQ7WOGR4q9mUZn1G-2" value="Generation of Candidate Items" style="rounded=0;whiteSpace=wrap;html=1;fontStyle=1;fontSize=13;" parent="1" vertex="1">
          <mxGeometry x="160" y="180" width="160" height="60" as="geometry" />
        </mxCell>
        <mxCell id="y7TbIQ7WOGR4q9mUZn1G-9" value="" style="edgeStyle=orthogonalEdgeStyle;rounded=0;orthogonalLoop=1;jettySize=auto;html=1;" parent="1" source="y7TbIQ7WOGR4q9mUZn1G-4" target="y7TbIQ7WOGR4q9mUZn1G-8" edge="1">
          <mxGeometry relative="1" as="geometry" />
        </mxCell>
        <mxCell id="y7TbIQ7WOGR4q9mUZn1G-4" value="International e-Delphi Survey" style="rounded=0;whiteSpace=wrap;html=1;fontStyle=1;fontSize=13;" parent="1" vertex="1">
          <mxGeometry x="160" y="320" width="160" height="60" as="geometry" />
        </mxCell>
        <mxCell id="y7TbIQ7WOGR4q9mUZn1G-11" value="" style="edgeStyle=orthogonalEdgeStyle;rounded=0;orthogonalLoop=1;jettySize=auto;html=1;" parent="1" source="y7TbIQ7WOGR4q9mUZn1G-8" target="y7TbIQ7WOGR4q9mUZn1G-10" edge="1">
          <mxGeometry relative="1" as="geometry" />
        </mxCell>
        <mxCell id="y7TbIQ7WOGR4q9mUZn1G-8" value="Consensus Meeting" style="rounded=0;whiteSpace=wrap;html=1;fontStyle=1;fontSize=13;" parent="1" vertex="1">
          <mxGeometry x="160" y="460" width="160" height="60" as="geometry" />
        </mxCell>
        <mxCell id="y7TbIQ7WOGR4q9mUZn1G-10" value="Dissemination of Evaluation Framework" style="rounded=0;whiteSpace=wrap;html=1;fontStyle=1;fontSize=13;" parent="1" vertex="1">
          <mxGeometry x="160" y="600" width="160" height="60" as="geometry" />
        </mxCell>
        <mxCell id="y7TbIQ7WOGR4q9mUZn1G-18" value="&lt;ul&gt;&lt;li&gt;&lt;span style=&quot;background-color: initial; text-align: justify;&quot;&gt;Agree on the scope of the study and develop study protocol&lt;/span&gt;&lt;/li&gt;&lt;li style=&quot;text-align: justify;&quot;&gt;Agree on Terms of Reference for executive group members&lt;/li&gt;&lt;/ul&gt;" style="whiteSpace=wrap;html=1;rounded=0;align=left;" parent="1" vertex="1">
          <mxGeometry x="420" y="40" width="390" height="60" as="geometry" />
        </mxCell>
        <mxCell id="y7TbIQ7WOGR4q9mUZn1G-23" value="&lt;ul&gt;&lt;li&gt;&lt;span style=&quot;background-color: initial; text-align: justify;&quot;&gt;Conduct scoping reviews to extract&amp;nbsp;&lt;/span&gt;relevant items for e-Delphi&lt;/li&gt;&lt;li&gt;Executive Group to provide feedback on the organization, completeness, and redundancy of candidate items list&lt;/li&gt;&lt;/ul&gt;" style="whiteSpace=wrap;html=1;rounded=0;align=left;" parent="1" vertex="1">
          <mxGeometry x="420" y="180" width="390" height="60" as="geometry" />
        </mxCell>
        <mxCell id="y7TbIQ7WOGR4q9mUZn1G-25" value="&lt;ul&gt;&lt;li style=&quot;&quot;&gt;Recruit, screen, and register international participants for participation in e-Delphi survey&lt;/li&gt;&lt;li style=&quot;&quot;&gt;Conduct recruitment and retention efforts during each round&lt;/li&gt;&lt;/ul&gt;" style="whiteSpace=wrap;html=1;rounded=0;align=left;" parent="1" vertex="1">
          <mxGeometry x="420" y="321" width="390" height="60" as="geometry" />
        </mxCell>
        <mxCell id="y7TbIQ7WOGR4q9mUZn1G-26" value="" style="edgeStyle=orthogonalEdgeStyle;rounded=0;orthogonalLoop=1;jettySize=auto;html=1;endArrow=none;endFill=0;" parent="1" edge="1">
          <mxGeometry relative="1" as="geometry">
            <mxPoint x="320" y="349.5" as="sourcePoint" />
            <mxPoint x="420" y="349.5" as="targetPoint" />
          </mxGeometry>
        </mxCell>
        <mxCell id="y7TbIQ7WOGR4q9mUZn1G-27" value="&lt;ul&gt;&lt;li style=&quot;&quot;&gt;Obtain expert consensus on the final list of items for &lt;i&gt;PHES-EF&lt;/i&gt;&lt;/li&gt;&lt;li style=&quot;&quot;&gt;Determine dissemination strategies for evaluation framework&lt;/li&gt;&lt;/ul&gt;" style="whiteSpace=wrap;html=1;rounded=0;align=left;" parent="1" vertex="1">
          <mxGeometry x="420" y="460" width="390" height="60" as="geometry" />
        </mxCell>
        <mxCell id="y7TbIQ7WOGR4q9mUZn1G-28" value="&lt;ul&gt;&lt;li style=&quot;&quot;&gt;Make framework available to all stakeholder groups and publish in an open-access journal with an open license&lt;/li&gt;&lt;li style=&quot;&quot;&gt;Engage with researchers and to promote the adoption of the evaluation framework&lt;/li&gt;&lt;/ul&gt;" style="whiteSpace=wrap;html=1;rounded=0;align=left;" parent="1" vertex="1">
          <mxGeometry x="420" y="600" width="390" height="60" as="geometry" />
        </mxCell>
        <mxCell id="y7TbIQ7WOGR4q9mUZn1G-30" value="" style="edgeStyle=orthogonalEdgeStyle;rounded=0;orthogonalLoop=1;jettySize=auto;html=1;endArrow=none;endFill=0;" parent="1" edge="1">
          <mxGeometry relative="1" as="geometry">
            <mxPoint x="320" y="489.5" as="sourcePoint" />
            <mxPoint x="420" y="489.5" as="targetPoint" />
          </mxGeometry>
        </mxCell>
        <mxCell id="y7TbIQ7WOGR4q9mUZn1G-31" value="" style="edgeStyle=orthogonalEdgeStyle;rounded=0;orthogonalLoop=1;jettySize=auto;html=1;endArrow=none;endFill=0;" parent="1" edge="1">
          <mxGeometry relative="1" as="geometry">
            <mxPoint x="320" y="629.5" as="sourcePoint" />
            <mxPoint x="420" y="629.5" as="targetPoint" />
          </mxGeometry>
        </mxCell>
        <mxCell id="y7TbIQ7WOGR4q9mUZn1G-35" value="STEP 1" style="text;html=1;strokeColor=none;fillColor=none;align=center;verticalAlign=middle;whiteSpace=wrap;rounded=0;fontSize=16;fontStyle=0" parent="1" vertex="1">
          <mxGeometry x="80" y="55" width="60" height="30" as="geometry" />
        </mxCell>
        <mxCell id="y7TbIQ7WOGR4q9mUZn1G-36" value="STEP 2" style="text;html=1;strokeColor=none;fillColor=none;align=center;verticalAlign=middle;whiteSpace=wrap;rounded=0;fontSize=16;fontStyle=0" parent="1" vertex="1">
          <mxGeometry x="80" y="195" width="60" height="30" as="geometry" />
        </mxCell>
        <mxCell id="y7TbIQ7WOGR4q9mUZn1G-37" value="STEP 3" style="text;html=1;strokeColor=none;fillColor=none;align=center;verticalAlign=middle;whiteSpace=wrap;rounded=0;fontSize=16;fontStyle=0" parent="1" vertex="1">
          <mxGeometry x="80" y="335" width="60" height="30" as="geometry" />
        </mxCell>
        <mxCell id="y7TbIQ7WOGR4q9mUZn1G-38" value="STEP 5" style="text;html=1;strokeColor=none;fillColor=none;align=center;verticalAlign=middle;whiteSpace=wrap;rounded=0;fontSize=16;fontStyle=0" parent="1" vertex="1">
          <mxGeometry x="80" y="615" width="60" height="30" as="geometry" />
        </mxCell>
        <mxCell id="y7TbIQ7WOGR4q9mUZn1G-39" value="STEP 4" style="text;html=1;strokeColor=none;fillColor=none;align=center;verticalAlign=middle;whiteSpace=wrap;rounded=0;fontSize=16;fontStyle=0" parent="1" vertex="1">
          <mxGeometry x="80" y="475" width="60" height="30" as="geometry" />
        </mxCell>
      </root>
    </mxGraphModel>
  </diagram>
</mxfile>
